<svg xmlns="http://www.w3.org/2000/svg" viewBox="0 0 24 24"><defs><style></style></defs><rect x="1" y="1" width="22" height="22" rx="7.656" fill="#ffcc4d"/><path d="M21.554 5.693c-.063-.289-2.888-.829-4.871-.829a5.584 5.584 0 00-3.3.7A3.125 3.125 0 0112 5.919a3.125 3.125 0 01-1.381-.352 5.584 5.584 0 00-3.3-.7c-1.983 0-4.808.54-4.871.829s-.113 1.217.088 1.381.439.025.477.6.477 2.976 1.808 3.767 3.741.163 4.6-.365A4.3 4.3 0 0011.3 8.568c.138-.892.351-1.507.7-1.507s.565.615.7 1.507a4.3 4.3 0 001.883 2.51c.854.528 3.264 1.155 4.6.365s1.77-3.189 1.808-3.767.276-.439.477-.6.149-1.095.086-1.383z" fill="#101820"/><path d="M16.666 12.583H7.334a.493.493 0 00-.492.544c.123 1.175.875 3.842 5.158 3.842s5.035-2.667 5.158-3.842a.493.493 0 00-.492-.544z" fill="#864e20"/><path d="M12 16.969a6.538 6.538 0 002.959-.6 1.979 1.979 0 00-1.209-.853c-1.344-.3-1.75.109-1.75.109s-.406-.406-1.75-.109a1.979 1.979 0 00-1.209.853 6.538 6.538 0 002.959.6z" fill="#f06880"/></svg>